<svg xmlns="http://www.w3.org/2000/svg" version="1.1" xmlns:xlink="http://www.w3.org/1999/xlink" width="200" height="200"><svg xmlns="http://www.w3.org/2000/svg" version="1.1" xmlns:xlink="http://www.w3.org/1999/xlink" viewBox="0 0 200 200"><rect width="200" height="200" fill="url('#gradient')"></rect><defs><linearGradient id="SvgjsLinearGradient1001" gradientTransform="rotate(45 0.5 0.5)"><stop offset="0%" stop-color="#e3af29"></stop><stop offset="100%" stop-color="#db3d08"></stop></linearGradient></defs><g><g fill="#2c3431" transform="matrix(7.569609856262834,0,0,7.569609856262834,1.8939864752473738,153.81930195516628)" stroke="#7d836e" stroke-width="0.2"><path d="M9.89-8.57L9.89-6.03L4.50-6.03L4.50-2.64L10.87-2.64L10.87 0L1.07 0L1.07-14.22L10.89-14.22L10.89-11.57L4.50-11.57L4.50-8.57L9.89-8.57ZM21.17 0L20.34-2.66L15.64-2.66L14.82 0L11.16 0L16.38-14.22L19.60-14.22L24.85 0L21.17 0ZM17.99-10.23L16.46-5.30L19.52-5.30L17.99-10.23Z"></path></g></g></svg><style>@media (prefers-color-scheme: light) { :root { filter: contrast(1) brightness(1); } }
@media (prefers-color-scheme: dark) { :root { filter: none; } }
</style></svg>